<?xml version="1.0" standalone="no"?>
<!DOCTYPE svg PUBLIC "-//W3C//DTD SVG 1.1//EN" "http://www.w3.org/Graphics/SVG/1.1/DTD/svg11.dtd" >
<svg xmlns="http://www.w3.org/2000/svg">
<metadata></metadata>
<defs>
<font id="hfutura1regular" horiz-adv-x="1412" >
<font-face units-per-em="2048" ascent="1638" descent="-410" />
<missing-glyph horiz-adv-x="705" />
<glyph horiz-adv-x="2048" />
<glyph horiz-adv-x="2048" />
<glyph unicode="&#xd;" horiz-adv-x="2048" />
<glyph unicode=" "  horiz-adv-x="705" />
<glyph unicode="&#x09;" horiz-adv-x="705" />
<glyph unicode="&#xa0;" horiz-adv-x="705" />
<glyph unicode="!" horiz-adv-x="775" d="M259 101q0 53 36.5 89.5t92 36.5t92 -36.5t36.5 -89.5q0 -54 -37 -91.5t-91 -37.5t-91.5 37t-37.5 92zM293 351v1378h189v-1378h-189z" />
<glyph unicode="&#x22;" horiz-adv-x="1047" d="M234 1729h215l-40 -752h-133zM599 1729h215l-41 -752h-133z" />
<glyph unicode="#" d="M101 512v178h264l66 393h-245v178h273l82 468h177l-83 -468h285l80 468h182l-81 -468h211v-178h-241l-66 -393h231v-178h-264l-92 -512h-173l89 512h-282l-96 -512h-173l90 512h-234zM543 690h282l68 393h-283z" />
<glyph unicode="$" d="M170 420l185 53q17 -127 104 -221t206 -94v700q-194 78 -282 162q-124 115 -124 292q0 173 115 292q115 118 291 142v235h151v-235q114 -15 212 -86.5t151 -175.5l-151 -99q-42 72 -85 112q-55 52 -127 65v-566q201 -83 298 -177q129 -126 129 -312q0 -193 -119 -335 q-124 -149 -308 -181v-252h-151v239q-183 0 -321 125q-140 130 -174 317zM451 1305q0 -85 70 -151q47 -44 144 -92v503q-92 -20 -153 -93t-61 -167zM816 175q110 36 172.5 123.5t62.5 204.5q0 101 -72 176q-55 57 -163 111v-615z" />
<glyph unicode="%" horiz-adv-x="1827" d="M74 1381q0 160 112 269q113 110 273 110q159 0 272 -110t113 -269q0 -155 -115 -267q-113 -109 -270 -109t-273 107q-112 109 -112 269zM221 1381q0 -99 68 -164q69 -66 170 -66q98 0 167 66q72 69 72 164q0 94 -72 162q-73 70 -167 70q-98 0 -168 -68t-70 -164zM363 30 l1007 1730l92 -55l-1001 -1733zM987 346q0 160 112 269q113 110 273 110q159 0 272 -110t113 -269q0 -153 -115 -265q-112 -109 -270 -109t-273 106q-112 109 -112 268zM1133 346q0 -97 69 -162q70 -68 170 -68q96 0 167 68q72 68 72 162q0 95 -72 163.5t-167 68.5 q-99 0 -169 -68t-70 -164z" />
<glyph unicode="&#x26;" horiz-adv-x="1593" d="M90 442q0 192 131 340q81 88 293 229l20 14q-94 131 -114 170q-57 100 -57 197q0 166 105 264q107 104 273 104q147 0 257 -97q110 -95 110 -243q0 -136 -97 -251q-59 -70 -208 -180l364 -466l196 227l139 -115l-220 -256l294 -379h-243l-186 243q-142 -128 -252 -188 q-152 -83 -301 -83q-203 0 -353 133q-151 135 -151 337zM278 457q0 -127 92 -218q94 -95 212 -95q157 0 298 117l153 127l-386 495l-83 -55q-90 -61 -146 -110q-140 -120 -140 -261zM545 1406q0 -41 22 -89q8 -22 85 -131l40 -57l17 11q105 75 144 114q71 71 71 166 q0 77 -53.5 126.5t-134.5 49.5q-53 0 -97 -25t-69 -68.5t-25 -96.5z" />
<glyph unicode="'" horiz-adv-x="661" d="M225 1729h215l-41 -752h-132z" />
<glyph unicode="(" horiz-adv-x="657" d="M213 628q0 333 43 602q53 342 166 578l163 -79q-184 -479 -184 -1101q0 -309 43.5 -576.5t140.5 -521.5l-163 -78q-113 235 -166 576q-43 269 -43 600z" />
<glyph unicode=")" horiz-adv-x="657" d="M74 -470q182 476 182 1098q0 311 -43 579.5t-139 521.5l162 79q112 -232 165 -578q44 -269 44 -602q0 -331 -44 -600q-53 -344 -165 -576z" />
<glyph unicode="*" horiz-adv-x="1357" d="M250 1355l55 166l303 -113l-14 321h172l-13 -321l302 113l55 -166l-311 -86l199 -253l-140 -103l-179 271l-179 -271l-139 103l201 253z" />
<glyph unicode="+" d="M151 497v179h466v466h179v-466h465v-179h-465v-465h-179v465h-466z" />
<glyph unicode="," horiz-adv-x="705" d="M133 -342l213 594l170 -59l-260 -585z" />
<glyph unicode="-" horiz-adv-x="476" d="M4 468v169h471v-169h-471z" />
<glyph unicode="." horiz-adv-x="705" d="M225 101q0 35 16.5 64t46 45.5t65.5 16.5q55 0 92 -36.5t37 -89.5q0 -54 -37 -91.5t-92 -37.5q-54 0 -91 37t-37 92z" />
<glyph unicode="/" horiz-adv-x="1307" d="M41 -289l1073 2182l152 -70l-1076 -2180z" />
<glyph unicode="0" d="M87 862q0 322 145 581q175 317 475 317q296 0 472 -315q147 -264 147 -583q0 -347 -161 -606q-178 -284 -458 -284q-285 0 -457 282q-163 264 -163 608zM280 853q0 -240 92 -442q121 -262 335 -262q211 0 332 260q94 207 94 444q0 246 -89 454q-122 273 -337 273 t-335 -271q-92 -208 -92 -456z" />
<glyph unicode="1" d="M363 1550l101 179h378v-1729h-192v1550h-287z" />
<glyph unicode="2" d="M94 0l810 956q60 71 88 139.5t28 149.5q0 142 -100 239q-100 96 -244 96q-154 0 -252 -100q-96 -100 -96 -255h-192q0 230 151 381q153 154 383 154q222 0 383 -145q160 -143 160 -367q0 -216 -130 -365l-599 -704h729v-179h-1119z" />
<glyph unicode="3" d="M131 449h188q0 -130 98.5 -215t234.5 -85q143 0 241 101q96 99 96 245q0 155 -99.5 239.5t-267.5 84.5v179q155 0 238 57q103 69 103 223q0 138 -82 220t-220 82q-81 0 -143 -34.5t-98 -96.5t-44 -146h-190q21 213 147 335t332 122q210 0 351 -132q140 -130 140 -341 q0 -120 -59 -223.5t-163 -155.5q117 -54 182.5 -169t65.5 -255q0 -223 -157 -370q-152 -142 -381 -142q-220 0 -364 131q-149 135 -149 346z" />
<glyph unicode="4" d="M13 280l1075 1546l4 -1367h213v-179h-213v-280h-193v280h-886zM351 459h548v782z" />
<glyph unicode="5" d="M48 280l154 110q40 -73 99 -127t132.5 -84t151.5 -30q191 0 312 124q123 127 123 318q0 182 -123 302q-122 118 -308 118q-86 0 -164.5 -26.5t-163.5 -82.5l251 827h688v-179h-553l-113 -368l103 9q252 0 414 -175q162 -173 162 -429q0 -268 -183 -443 q-180 -172 -452 -172q-172 0 -307 79t-223 229z" />
<glyph unicode="6" d="M101 562q0 108 46 220q41 99 112 195l573 783l145 -108l-399 -538l4 -4q80 26 152 26q236 0 397 -168q163 -169 163 -404q0 -245 -177 -422q-174 -170 -419 -170q-249 0 -422 170q-175 172 -175 420zM293 558q0 -168 118 -289q117 -120 287 -120t286.5 120t116.5 289 q0 171 -117 284q-117 114 -286 114t-287 -114t-118 -284z" />
<glyph unicode="7" d="M81 59l981 1491h-946v179h1276l-1160 -1757z" />
<glyph unicode="8" d="M179 484q0 134 69 248.5t185 166.5q-97 55 -153.5 158t-56.5 221q0 207 140 344q141 138 343.5 138t344.5 -138q140 -137 140 -344q0 -119 -56 -220.5t-156 -158.5q118 -55 186.5 -166.5t68.5 -248.5q0 -222 -151 -370q-146 -142 -376 -142q-228 0 -377 142 q-151 145 -151 370zM372 482q0 -140 96 -236.5t238.5 -96.5t239 96.5t96.5 236.5q0 135 -99 233.5t-236 98.5q-143 0 -239 -96t-96 -236zM405 1282q0 -123 88 -214q86 -89 214 -89q123 0 210 87q90 90 90 216q0 124 -87.5 211t-212.5 87q-121 0 -212 -87q-90 -86 -90 -211z " />
<glyph unicode="9" d="M103 1169q0 247 175 418q176 173 422 173q243 0 419 -173q177 -174 177 -418q0 -112 -46 -219q-48 -106 -114 -195l-574 -783l-144 96l398 549l-4 5q-72 -23 -149 -23q-237 0 -399 165q-161 168 -161 405zM296 1177q0 -170 117 -284q119 -116 287 -116q166 0 284.5 115.5 t118.5 284.5q0 166 -118.5 284.5t-284.5 118.5q-170 0 -287 -116q-117 -118 -117 -287z" />
<glyph unicode=":" horiz-adv-x="705" d="M225 101q0 35 16.5 64t46 45.5t65.5 16.5q55 0 92 -36.5t37 -89.5q0 -54 -37 -91.5t-92 -37.5q-54 0 -91 37t-37 92zM225 982q0 54 36.5 90t91.5 36t92 -36.5t37 -89.5q0 -35 -17 -65t-46.5 -48t-65.5 -18q-53 0 -90.5 38t-37.5 93z" />
<glyph unicode=";" horiz-adv-x="705" d="M138 -342l213 594l170 -59l-260 -585zM282 982q0 21 6.5 40.5t18 34.5t27 26.5t35.5 18t42 6.5q55 0 91.5 -36t36.5 -90q0 -35 -16.5 -65t-46 -48t-65.5 -18q-53 0 -91 38t-38 93z" />
<glyph unicode="&#x3c;" d="M151 507v161l1110 474v-194l-843 -361l843 -360v-195z" />
<glyph unicode="=" d="M151 319v178h1110v-178h-1110zM151 676v180h1110v-180h-1110z" />
<glyph unicode="&#x3e;" d="M151 32v195l845 360l-845 361v194l1110 -474v-161z" />
<glyph unicode="?" horiz-adv-x="1118" d="M142 1368q-12 160 125 282q123 110 297 110t294 -120q119 -119 119 -294q0 -91 -31.5 -171t-92.5 -136q-53 -49 -144 -83q-58 -23 -161 -50q-59 -17 -96 -39.5t-58.5 -60t-21.5 -90.5q0 -77 55 -130.5t133 -53.5q86 0 136 63t50 158h185q0 -169 -106 -283 q-106 -115 -267 -115q-158 0 -267 109q-107 107 -107 265q0 143 92 232q71 69 224 118q159 53 198 79q92 62 92 186q0 104 -66 171.5t-171 67.5q-96 0 -160.5 -66t-64.5 -162q0 -54 14 -110h-191zM427 101q0 53 36.5 89.5t91.5 36.5t91.5 -36.5t36.5 -89.5 q0 -54 -36.5 -91.5t-90.5 -37.5t-91.5 37t-37.5 92z" />
<glyph unicode="@" horiz-adv-x="1834" d="M83 865q0 376 252 635q256 260 624 260q161 0 292 -48t249 -152q121 -106 188 -239.5t67 -283.5q0 -140 -37 -266.5t-105 -214.5q-76 -100 -177 -153q-90 -46 -177 -46q-32 0 -57 16.5t-41.5 48t-24.5 75.5q-140 -140 -313 -140q-154 0 -269.5 122t-115.5 298 q0 221 126 374q135 168 342 168q93 0 166 -37.5t139 -123.5l32 140h163l-115 -585q-18 -87 -18 -126q0 -14 1.5 -24t5 -19t9.5 -14t14.5 -8t20.5 -3q82 0 173 140q92 140 92 297q0 300 -175.5 469t-461.5 169q-306 0 -505 -206t-199 -523q0 -323 211 -528q212 -201 532 -201 q291 0 438 105l160 -117q-151 -77 -263 -108q-168 -44 -354 -44q-376 0 -632.5 253t-256.5 640zM599 794q0 -81 29 -143t85.5 -97t133.5 -35q143 0 221 105q69 89 86 229q2 18 2 53q0 76 -29 134t-82.5 90.5t-124.5 32.5q-135 0 -228 -115t-93 -254z" />
<glyph unicode="A" horiz-adv-x="1602" d="M13 0l799 1812l777 -1812h-213l-203 491h-740l-208 -491h-212zM512 670h584l-288 693z" />
<glyph unicode="B" horiz-adv-x="1302" d="M175 0v1729h284q255 0 406 -101q172 -121 172 -367q0 -113 -41 -195t-129 -142q74 -18 136 -60t104 -100.5t65 -131t23 -150.5q0 -243 -181 -370q-159 -112 -438 -112h-401zM367 179h193q200 0 302 57q140 75 140 259t-153 255q-112 53 -315 53h-167v-624zM367 968h73 q251 0 335 80q69 66 69 213q0 178 -113 243q-83 46 -289 46h-75v-582z" />
<glyph unicode="C" horiz-adv-x="1644" d="M76 858q0 372 263 635q267 267 638 267q286 0 516 -171v-238q-105 106 -244 167.5t-284 61.5q-290 0 -492 -212q-204 -214 -204 -503t206 -502q207 -214 495 -214q143 0 278 60t245 170v-239q-234 -168 -516 -168q-371 0 -635 258q-266 258 -266 628z" />
<glyph unicode="D" horiz-adv-x="1554" d="M175 0v1729h325q215 0 358 -39q176 -50 317 -171q287 -243 287 -657q0 -195 -72 -355q-70 -161 -213 -289t-315 -177q-142 -41 -367 -41h-320zM367 179h140q173 0 292 32q139 40 248.5 141.5t166.5 235.5q55 130 55 267v10q-2 155 -58.5 287t-166.5 229q-107 93 -233 131 t-304 38h-140v-1371z" />
<glyph unicode="E" horiz-adv-x="1224" d="M175 0v1729h896v-179h-704v-513h684v-179h-684v-679h704v-179h-896z" />
<glyph unicode="F" horiz-adv-x="1095" d="M175 0v1729h786v-179h-594v-513h576v-179h-576v-858h-192z" />
<glyph unicode="G" horiz-adv-x="1880" d="M74 860q0 372 263 635q264 265 637 265q442 0 733 -375l-140 -131q-74 105 -164.5 177.5t-199 110.5t-231.5 38q-293 0 -499 -212.5t-206 -509.5q0 -283 201 -488q101 -101 231 -161t260 -60q237 0 422 149q195 156 195 392h-514v179h720q0 -207 -29 -324 q-38 -159 -149 -286q-77 -91 -181.5 -156t-221.5 -98t-238 -33q-368 0 -628 260q-261 261 -261 628z" />
<glyph unicode="H" horiz-adv-x="1637" d="M184 0v1729h192v-701h885v701h193v-1729h-193v849h-885v-849h-192z" />
<glyph unicode="I" horiz-adv-x="547" d="M179 0v1729h193v-1729h-193z" />
<glyph unicode="J" horiz-adv-x="720" d="M-149 -48l108 147q57 -54 99.5 -76.5t101.5 -22.5q65 0 105.5 34t61.5 114t21 213v1368h193v-1368q0 -155 -9 -208q-17 -110 -77 -188q-33 -45 -80.5 -77t-103.5 -48.5t-115 -16.5q-150 0 -305 129z" />
<glyph unicode="K" horiz-adv-x="1401" d="M175 0v1729h192v-740l736 740h260l-812 -805l839 -924h-266l-708 794l-49 -48v-746h-192z" />
<glyph unicode="L" horiz-adv-x="860" d="M175 0v1729h192v-1550h477v-179h-669z" />
<glyph unicode="M" horiz-adv-x="2055" d="M48 0l351 1828l629 -1452l631 1452l350 -1828h-197l-223 1169l-561 -1237l-555 1237l-228 -1169h-197z" />
<glyph unicode="N" horiz-adv-x="1912" d="M186 0v1803l1348 -1413v1339h193v-1805l-1348 1409v-1333h-193z" />
<glyph unicode="O" horiz-adv-x="1976" d="M87 862q0 368 266 633q264 265 636 265q371 0 635 -265q267 -263 267 -632.5t-267 -632.5q-264 -258 -635 -258q-374 0 -638 258q-264 259 -264 632zM280 865q0 -295 206 -504q208 -212 502.5 -212t499.5 208q210 210 210 508q0 294 -207 505q-204 210 -502 210 q-296 0 -503 -210q-206 -210 -206 -505z" />
<glyph unicode="P" horiz-adv-x="1153" d="M175 0v1729h284q159 0 245 -15q91 -14 184 -79q91 -63 143 -168.5t52 -223.5q0 -172 -95.5 -298.5t-265.5 -167.5q-85 -20 -215 -20h-140v-757h-192zM367 936h128q186 0 278 62q117 76 117 250q0 148 -82 220q-92 82 -370 82h-71v-614z" />
<glyph unicode="Q" horiz-adv-x="1976" d="M87 862q0 368 266 633q264 265 636 265q373 0 637.5 -264.5t264.5 -637.5q0 -341 -251 -610l260 -261h-246l-144 153q-72 -53 -158.5 -91t-178.5 -57.5t-184 -19.5q-374 0 -638 258q-264 259 -264 632zM280 865q0 -295 206 -504q208 -212 503 -212q96 0 202.5 35.5 t182.5 93.5l-418 420h252l300 -313q190 201 190 480q0 296 -207 507q-205 208 -502 208q-296 0 -503 -210q-206 -210 -206 -505z" />
<glyph unicode="R" horiz-adv-x="1243" d="M175 0v1729h249q287 0 441 -92q192 -113 192 -385q0 -200 -116.5 -329t-316.5 -148l551 -775h-236l-523 759h-49v-759h-192zM367 928h60q198 0 300 54q138 72 138 257q0 192 -134 261q-92 50 -307 50h-57v-622z" />
<glyph unicode="S" horiz-adv-x="1281" d="M92 418l188 52q21 -140 116 -230.5t230 -90.5q143 0 249.5 96.5t106.5 240.5q0 135 -99 221q-69 57 -220 123l-105 46q-177 76 -265 163q-112 109 -112 280q0 196 140 316q142 125 344 125q147 0 262 -69t185 -200l-153 -99q-52 91 -119 138q-70 50 -179 50 q-79 0 -144.5 -33.5t-104 -95.5t-38.5 -139q0 -100 92 -172q57 -46 178 -98l115 -51q197 -86 292 -177q124 -121 124 -309q0 -225 -159 -381q-156 -152 -385 -152q-208 0 -353 120t-186 326z" />
<glyph unicode="T" horiz-adv-x="1077" d="M22 1550v179h1033v-179h-422v-1550h-193v1550h-418z" />
<glyph unicode="U" horiz-adv-x="1570" d="M170 647v1082h193v-1029q0 -156 9 -230q10 -81 66 -158q55 -73 152 -118t196 -45q75 0 144 22t126 64t96 108t50 148q9 58 9 209v1029h192v-1082q0 -176 -22 -257q-31 -122 -124 -220q-93 -96 -217 -148q-120 -50 -244 -50h-10q-272 4 -447 175q-101 95 -142 229 q-27 96 -27 271z" />
<glyph unicode="V" horiz-adv-x="1430" d="M13 1729h210l493 -1318l492 1318h210l-702 -1830z" />
<glyph unicode="W" horiz-adv-x="2502" d="M30 1729h209l453 -1296l560 1386l560 -1386l454 1296h209l-663 -1816l-560 1390l-560 -1390z" />
<glyph unicode="X" horiz-adv-x="1293" d="M30 0l511 895l-467 834h219l354 -650l353 650h221l-468 -834l510 -895h-219l-397 711l-397 -711h-220z" />
<glyph unicode="Y" horiz-adv-x="1359" d="M18 1729h223l440 -770l440 770h223l-567 -985v-744h-192v744z" />
<glyph unicode="Z" horiz-adv-x="1344" d="M32 0l942 1550h-823v179h1145l-945 -1550h920v-179h-1239z" />
<glyph unicode="[" horiz-adv-x="722" d="M239 -548v2356h435v-171h-247v-2016h247v-169h-435z" />
<glyph unicode="\" horiz-adv-x="1307" d="M41 1823l152 70l1073 -1893l-149 -66z" />
<glyph unicode="]" horiz-adv-x="722" d="M48 -379h248v2016h-248v171h436v-2356h-436v169z" />
<glyph unicode="^" d="M151 738l473 991h166l471 -991h-204l-350 753l-356 -753h-200z" />
<glyph unicode="_" horiz-adv-x="1146" d="M0 -256h1147v-173h-1147v173z" />
<glyph unicode="`" horiz-adv-x="820" d="M179 1620l193 87l272 -376l-114 -65z" />
<glyph unicode="a" horiz-adv-x="1322" d="M83 536q0 244 140 407q141 165 378 165q227 0 369 -184l4 155h184v-1079h-184v149q-147 -177 -375 -177q-234 0 -374 164q-142 169 -142 400zM271 551q0 -169 90 -284q98 -127 263 -127q170 0 269 121q91 114 91 287q0 164 -98 277q-98 114 -264 114q-152 0 -252 -116 q-99 -113 -99 -272z" />
<glyph unicode="b" horiz-adv-x="1322" d="M165 0v1893h183v-969q72 88 168 136t206 48q230 0 379 -169q140 -160 140 -400q0 -235 -138 -397q-147 -170 -378 -170q-114 0 -211.5 45.5t-160.5 131.5l-5 -149h-183zM339 551q0 -169 90 -284q98 -127 263 -127q170 0 269 121q92 114 92 287q0 164 -99 277 q-98 114 -264 114q-152 0 -252 -116q-99 -113 -99 -272z" />
<glyph unicode="c" horiz-adv-x="1090" d="M66 539q0 243 168 404q168 165 408 165q179 0 332 -108v-243q-152 182 -339 182q-161 0 -272 -118q-109 -117 -109 -282q0 -164 103 -283q102 -116 269 -116q56 0 104.5 11t91.5 34.5t81 58t74 82.5l5 -245q-158 -109 -342 -109q-248 0 -410 159q-164 164 -164 408z" />
<glyph unicode="d" horiz-adv-x="1322" d="M83 536q0 244 140 407q141 165 378 165q109 0 205.5 -48.5t163.5 -135.5l4 969h184v-1893h-184v149q-143 -177 -375 -177q-234 0 -374 164q-142 169 -142 400zM271 551q0 -169 90 -284q98 -127 263 -127q170 0 269 121q91 114 91 287q0 164 -98 277q-98 114 -264 114 q-152 0 -252 -116q-99 -113 -99 -272z" />
<glyph unicode="e" horiz-adv-x="1189" d="M78 525q0 250 135 411q144 172 388 172t386 -184q125 -165 125 -424h-845q0 -152 98 -257q100 -103 254 -103q107 0 186 56.5t143 166.5l155 -90q-160 -301 -497 -301q-240 0 -383 157q-145 157 -145 396zM276 656h644q-20 120 -109.5 201.5t-206.5 81.5q-120 0 -216 -83 q-96 -82 -112 -200z" />
<glyph unicode="f" horiz-adv-x="628" d="M90 908v171h100v429q0 120 8 174.5t43 111.5q37 61 111.5 94.5t163.5 33.5q63 0 131 -22v-186q-27 10 -43 13q-43 11 -81 11q-104 0 -131 -75q-18 -52 -18 -220v-364h273v-171h-273v-908h-184v908h-100z" />
<glyph unicode="g" horiz-adv-x="1329" d="M71 534q0 240 140 400q146 174 380 174q230 0 368 -184l4 155h184v-1026q0 -166 -14 -241q-22 -124 -96 -218t-182.5 -143.5t-235.5 -49.5q-231 0 -380 135.5t-149 360.5h183q0 -148 95 -237t249 -89q198 0 280 133q66 107 66 316v129q-147 -177 -378.5 -177t-371.5 164 q-142 165 -142 398zM259 551q0 -169 89 -284q99 -127 265 -127q168 0 267 121q92 114 92 287q0 164 -98 277q-99 114 -264 114q-153 0 -253 -116q-98 -113 -98 -272z" />
<glyph unicode="h" horiz-adv-x="1210" d="M175 0v1893h182v-941l6 -4q117 160 307 160q210 0 295 -138q72 -110 72 -330v-640h-184v608q0 159 -32 230q-53 101 -195 101q-171 0 -230 -140q-39 -91 -39 -287v-512h-182z" />
<glyph unicode="i" horiz-adv-x="600" d="M170 1484q0 53 38.5 92t91.5 39t92 -39t39 -92t-39 -92t-92 -39q-35 0 -64.5 16.5t-47.5 47t-18 67.5zM208 0v1079h184v-1079h-184z" />
<glyph unicode="j" horiz-adv-x="600" d="M170 1484q0 53 38.5 92t91.5 39t92 -39t39 -92t-39 -92t-92 -39q-35 0 -64.5 16.5t-47.5 47t-18 67.5zM208 -604v1683h184v-1683h-184z" />
<glyph unicode="k" horiz-adv-x="1077" d="M165 0v1893h183v-1214l393 400h246l-462 -460l548 -619h-243l-434 491l-48 -49v-442h-183z" />
<glyph unicode="l" horiz-adv-x="519" d="M170 0v1893h183v-1893h-183z" />
<glyph unicode="m" horiz-adv-x="1760" d="M175 0v1079h182v-118q103 147 265 147q96 0 175.5 -48t122.5 -132q45 86 132 133t191 47q191 0 276 -140q68 -114 68 -312v-656h-184v626q0 143 -27 208q-46 105 -170 105q-109 0 -164 -72q-70 -86 -70 -296v-571h-182v613q0 135 -31 210q-45 116 -163 116 q-140 0 -200 -129q-39 -91 -39 -252v-558h-182z" />
<glyph unicode="n" horiz-adv-x="1210" d="M175 0v1079h182v-131q124 160 313 160q210 0 295 -138q72 -110 72 -330v-640h-184v608q0 159 -32 230q-53 101 -195 101q-171 0 -230 -140q-39 -91 -39 -287v-512h-182z" />
<glyph unicode="o" horiz-adv-x="1288" d="M78 536q0 239 163 405q163 167 403 167q239 0 402 -167q165 -168 165 -404.5t-165 -400.5q-163 -164 -402 -164q-242 0 -403 161q-163 163 -163 403zM261 539q0 -170 106 -285q106 -114 277 -114q170 0 276 114q108 118 108 285q0 165 -108 282q-106 118 -276 118 q-168 0 -274 -116q-109 -117 -109 -284z" />
<glyph unicode="p" horiz-adv-x="1322" d="M165 -604v1683h183v-155q145 184 377 184q228 0 376 -172q140 -163 140 -400t-142 -403q-141 -161 -377 -161q-238 0 -369 179l-5 -755h-183zM339 551q0 -169 90 -284q98 -127 263 -127q170 0 269 121q92 114 92 287q0 164 -99 277q-98 114 -264 114q-152 0 -252 -116 q-99 -113 -99 -272z" />
<glyph unicode="q" horiz-adv-x="1322" d="M83 534.5q0 238.5 138 399.5q147 174 378 174q233 0 371 -184l4 155h184v-1683h-184v755q-68 -87 -164.5 -133t-208.5 -46q-234 0 -380 166q-138 158 -138 396.5zM271 551q0 -169 90 -284q98 -127 263 -127q170 0 269 121q91 114 91 287q0 164 -98 277q-98 114 -264 114 q-152 0 -252 -116q-99 -113 -99 -272z" />
<glyph unicode="r" horiz-adv-x="768" d="M165 0v1079h183v-118q63 76 103 105q58 42 140 42q83 0 166 -51l-87 -167q-31 21 -47.5 30.5t-30.5 14t-32 4.5q-133 0 -181 -147q-31 -89 -31 -253v-539h-183z" />
<glyph unicode="s" horiz-adv-x="915" d="M85 243l163 69q38 -85 80 -124q52 -48 140 -48q49 0 88.5 20.5t62.5 58t23 86.5q0 109 -243 211.5t-243 286.5q0 132 92 217q94 88 229 88q91 0 171 -56t116 -144l-154 -80q-22 48 -61 79.5t-85 31.5q-51 0 -92.5 -36t-41.5 -84q0 -53 44 -90q37 -28 206 -98 q120 -50 173 -106q77 -77 77 -204q0 -152 -108 -253q-102 -96 -256 -96q-138 0 -238 71t-143 200z" />
<glyph unicode="t" horiz-adv-x="549" d="M71 908v171h113v387h183v-387h193v-171h-193v-908h-183v908h-113z" />
<glyph unicode="u" horiz-adv-x="1173" d="M160 457v622h184v-602q0 -170 37 -236q53 -101 206 -101q148 0 205 101q38 71 38 236v602h184v-622q0 -231 -92 -352q-105 -133 -335 -133q-228 0 -333 133q-94 123 -94 352z" />
<glyph unicode="v" horiz-adv-x="1061" d="M2 1079h209l321 -726l321 726h207l-528 -1147z" />
<glyph unicode="w" horiz-adv-x="1742" d="M7 1079h209l318 -731l335 812l337 -812l322 731h208l-534 -1153l-333 801l-333 -801z" />
<glyph unicode="x" horiz-adv-x="1141" d="M2 0l459 573l-393 506h225l283 -368l282 368h230l-396 -506l448 -573h-223l-341 438l-344 -438h-230z" />
<glyph unicode="y" horiz-adv-x="1141" d="M-2 1079h210l381 -774l350 774h208l-796 -1683h-209l349 705z" />
<glyph unicode="z" horiz-adv-x="1189" d="M22 0l779 908h-633v171h1001l-775 -909h744v-170h-1116z" />
<glyph unicode="{" horiz-adv-x="766" d="M116 556v146q107 34 145 126q28 75 28 240v429q0 131 72 226q61 85 123 85h168v-171h-92q-14 0 -25 -2t-19.5 -7t-14.5 -12t-10.5 -18t-7 -23.5t-4 -30.5t-2 -36.5t-0.5 -43.5v-434q0 -134 -48 -243.5t-127 -158.5q77 -47 126 -158t49 -245v-429q0 -105 14.5 -140 t68.5 -35h92v-169h-168q-60 0 -121 84q-74 102 -74 225v425q0 165 -28 241q-40 95 -145 129z" />
<glyph unicode="|" horiz-adv-x="1307" d="M564 0v1893h180v-1893h-180z" />
<glyph unicode="}" horiz-adv-x="766" d="M114 -379h92q53 0 68 37t15 138v429q0 136 48 245.5t127 157.5q-51 30 -99 106q-76 121 -76 296v434q0 101 -9 125q-17 48 -74 48h-92v171h168q59 0 121 -85q74 -102 74 -226v-429q0 -169 30 -252q31 -80 143 -114v-146q-106 -34 -145 -127q-28 -75 -28 -243v-425 q0 -130 -72 -225q-61 -84 -123 -84h-168v169z" />
<glyph unicode="~" d="M151 459q57 151 129 237q87 100 190 100q46 0 124 -32q33 -16 75.5 -42.5t102.5 -66t93 -59.5q43 -27 78 -27q23 0 46 16.5t44 46t39.5 70.5t32.5 90l156 -65q-52 -153 -123 -236q-87 -101 -195 -101q-64 0 -149 48q-16 8 -85 53l-133 87q-55 37 -106 37q-45 0 -86 -57.5 t-75 -163.5z" />
<glyph unicode="&#xa2;" d="M218 871q0 217 135 381q136 167 347 191v243h151v-239q145 -13 276 -101v-243q-54 66 -122 112q-77 53 -154 63v-790q79 12 150.5 60t125.5 124l4 -245q-160 -108 -280 -108v-257h-151v259q-203 24 -343 184q-139 159 -139 366zM405 886q0 -139 81 -255q78 -113 214 -140 v782q-132 -23 -214 -137q-81 -117 -81 -250z" />
<glyph unicode="&#xa3;" d="M85 66q56 94 140 157q93 66 195 66q73 101 73 214q0 63 -16 112h-291v147h230l-44 85l-101 201q-46 94 -46 221q0 206 149 348q152 143 362 143q223 0 363 -147t140 -372l-188 -50q0 167 -69 265q-78 120 -241 120q-134 0 -227 -90q-92 -85 -92 -223q0 -118 75 -258 l129 -243h326v-147h-276q16 -55 16 -103q0 -115 -75 -248l11 -5l168 -60q110 -39 165 -39q67 0 127 56q33 30 81 117l157 -94q-52 -114 -138 -186q-98 -79 -216 -79q-39 0 -87.5 10t-78.5 19t-114 36l-132 46q-59 20 -120 20q-66 0 -115.5 -34.5t-90.5 -102.5z" />
<glyph unicode="&#xa5;" d="M44 1729h223l440 -766l440 766h223l-356 -619h332v-147h-418l-125 -229h543v-147h-543v-587h-193v587h-544v147h544l-126 229h-418v147h333z" />
<glyph unicode="&#xa8;" horiz-adv-x="1070" d="M186 1493q0 53 35 88.5t88 35.5t88.5 -35.5t35.5 -88.5t-35.5 -88t-88.5 -35q-35 0 -63 16t-44 44t-16 63zM637 1493q0 53 36 88.5t89 35.5t88.5 -35.5t35.5 -88.5q0 -35 -16.5 -63t-45 -44t-62.5 -16q-53 0 -89 35t-36 88z" />
<glyph unicode="&#xa9;" horiz-adv-x="1834" d="M18 865q0 370 262 632.5t637 262.5t639 -260q261 -258 261 -635q0 -372 -261 -633q-260 -260 -639 -260q-376 0 -637 258q-262 258 -262 635zM156 865q0 -315 225 -537q224 -220 536 -220q311 0 535 220q227 224 227 537q0 310 -227 534q-227 223 -535 223 q-310 0 -536 -223q-225 -222 -225 -534zM455 871q0 230 132 372q134 145 365 145q161 0 277 -91.5t145 -248.5h-140q-45 202 -284 202q-174 0 -271 -119q-88 -108 -88 -255q0 -165 97 -272q98 -109 266 -109q228 0 280 209h140q-20 -161 -140 -253q-123 -94 -280 -94 q-222 0 -363 148q-136 147 -136 366z" />
<glyph unicode="&#xab;" horiz-adv-x="1146" d="M94 551l385 488l122 -96l-310 -392l310 -381l-122 -94zM484 551l385 488l122 -96l-310 -392l310 -381l-122 -94z" />
<glyph unicode="&#xad;" horiz-adv-x="476" d="M4 468v169h471v-169h-471z" />
<glyph unicode="&#xae;" horiz-adv-x="1834" d="M18 865q0 370 262 632.5t637 262.5t639 -260q261 -258 261 -635q0 -372 -261 -633q-260 -260 -639 -260q-376 0 -637 258q-262 258 -262 635zM156 865q0 -315 225 -537q224 -220 536 -220q311 0 535 220q227 224 227 537q0 310 -227 534q-227 223 -535 223 q-310 0 -536 -223q-225 -222 -225 -534zM582 381v979h427q158 0 241 -51q107 -63 107 -208q0 -138 -88 -206q-80 -63 -221 -63l296 -451h-165l-293 451h-166v-451h-138zM720 970h166q13 0 41.5 -1t46.5 -1q111 0 166 21q81 31 81 114q0 43 -33.5 70.5t-84.5 38.5t-121 11 h-262v-253z" />
<glyph unicode="&#xb4;" horiz-adv-x="820" d="M179 1331l272 376l193 -87l-351 -354z" />
<glyph unicode="&#xb8;" horiz-adv-x="744" d="M179 -390l220 340l170 -69l-262 -336z" />
<glyph unicode="&#xbb;" horiz-adv-x="1146" d="M156 170l310 381l-310 392l122 96l385 -488l-385 -475zM545 170l311 381l-311 392l123 96l385 -488l-385 -475z" />
<glyph unicode="&#xc1;" horiz-adv-x="1602" d="M13 0l799 1812l777 -1812h-213l-203 491h-740l-208 -491h-212zM512 670h584l-288 693zM571 1981l273 377l193 -87l-352 -354z" />
<glyph unicode="&#xc9;" horiz-adv-x="1224" d="M175 0v1729h896v-179h-704v-513h684v-179h-684v-679h704v-179h-896zM381 1981l273 377l193 -87l-352 -354z" />
<glyph unicode="&#xcd;" horiz-adv-x="547" d="M46 1981l273 377l193 -87l-352 -354zM179 0v1729h193v-1729h-193z" />
<glyph unicode="&#xd3;" horiz-adv-x="1976" d="M87 862q0 368 266 633q264 265 636 265q371 0 635 -265q267 -263 267 -632.5t-267 -632.5q-264 -258 -635 -258q-374 0 -638 258q-264 259 -264 632zM280 865q0 -295 206 -504q208 -212 502.5 -212t499.5 208q210 210 210 508q0 294 -207 505q-204 210 -502 210 q-296 0 -503 -210q-206 -210 -206 -505zM757 1981l273 377l193 -87l-352 -354z" />
<glyph unicode="&#xd6;" horiz-adv-x="1976" d="M87 862q0 368 266 633q264 265 636 265q371 0 635 -265q267 -263 267 -632.5t-267 -632.5q-264 -258 -635 -258q-374 0 -638 258q-264 259 -264 632zM280 865q0 -295 206 -504q208 -212 502.5 -212t499.5 208q210 210 210 508q0 294 -207 505q-204 210 -502 210 q-296 0 -503 -210q-206 -210 -206 -505zM641 2145q0 53 35 88.5t88 35.5t88.5 -35.5t35.5 -88.5t-35.5 -88t-88.5 -35t-88 35t-35 88zM1092 2145q0 35 16.5 63.5t45 44.5t62.5 16q26 0 49.5 -9.5t39.5 -26t26 -39.5t10 -49q0 -53 -36 -88t-89 -35t-88.5 35t-35.5 88z" />
<glyph unicode="&#xda;" horiz-adv-x="1570" d="M170 647v1082h193v-1029q0 -156 9 -230q10 -81 66 -158q55 -73 152 -118t196 -45q75 0 144 22t126 64t96 108t50 148q9 58 9 209v1029h192v-1082q0 -176 -22 -257q-31 -122 -124 -219.5t-217.5 -149t-253.5 -49.5q-272 4 -447 175q-101 95 -142 229q-27 96 -27 271z M556 1981l272 377l192 -87l-350 -354z" />
<glyph unicode="&#xdc;" horiz-adv-x="1570" d="M170 647v1082h193v-1029q0 -156 9 -230q10 -81 66 -158q55 -73 152 -118t196 -45q75 0 144 22t126 64t96 108t50 148q9 58 9 209v1029h192v-1082q0 -176 -22 -257q-31 -122 -124 -219.5t-217.5 -149t-253.5 -49.5q-272 4 -447 175q-101 95 -142 229q-27 96 -27 271z M436 2145q0 53 35 88.5t88 35.5t88.5 -35.5t35.5 -88.5q0 -35 -16 -63t-44.5 -44t-63.5 -16q-53 0 -88 35t-35 88zM887 2145q0 35 16.5 63.5t45 44.5t62.5 16q53 0 89 -35.5t36 -88.5t-36 -88t-89 -35t-88.5 35t-35.5 88z" />
<glyph unicode="&#xe1;" horiz-adv-x="1322" d="M83 536q0 244 140 407q141 165 378 165q227 0 369 -184l4 155h184v-1079h-184v149q-147 -177 -375 -177q-234 0 -374 164q-142 169 -142 400zM271 551q0 -169 90 -284q98 -127 263 -127q170 0 269 121q91 114 91 287q0 164 -98 277q-98 114 -264 114q-152 0 -252 -116 q-99 -113 -99 -272zM431 1331l273 376l193 -87l-352 -354z" />
<glyph unicode="&#xe9;" horiz-adv-x="1189" d="M78 525q0 250 135 411q144 172 388 172t386 -184q125 -165 125 -424h-845q0 -152 98 -257q100 -103 254 -103q107 0 186 56.5t143 166.5l155 -90q-160 -301 -497 -301q-240 0 -383 157q-145 157 -145 396zM276 656h644q-20 120 -109.5 201.5t-206.5 81.5q-120 0 -216 -83 q-96 -82 -112 -200zM365 1331l272 376l193 -87l-351 -354z" />
<glyph unicode="&#xed;" horiz-adv-x="600" d="M71 1331l273 376l192 -87l-350 -354zM208 0v1079h184v-1079h-184z" />
<glyph unicode="&#xf3;" horiz-adv-x="1288" d="M78 536q0 239 163 405q163 167 403 167q239 0 402 -167q165 -168 165 -404.5t-165 -400.5q-163 -164 -402 -164q-242 0 -403 161q-163 163 -163 403zM261 539q0 -170 106 -285q106 -114 277 -114q170 0 276 114q108 118 108 285q0 165 -108 282q-106 118 -276 118 q-168 0 -274 -116q-109 -117 -109 -284zM413 1331l272 376l193 -87l-350 -354z" />
<glyph unicode="&#xf6;" horiz-adv-x="1288" d="M78 536q0 239 163 405q163 167 403 167q239 0 402 -167q165 -168 165 -404.5t-165 -400.5q-163 -164 -402 -164q-242 0 -403 161q-163 163 -163 403zM261 539q0 -170 106 -285q106 -114 277 -114q170 0 276 114q108 118 108 285q0 165 -108 282q-106 118 -276 118 q-168 0 -274 -116q-109 -117 -109 -284zM296 1493q0 53 35 88.5t88 35.5t88.5 -35.5t35.5 -88.5t-35.5 -88t-88.5 -35q-35 0 -63 16t-44 44t-16 63zM747 1493q0 35 16.5 63.5t45 44.5t62.5 16q53 0 89 -35.5t36 -88.5t-36 -88t-89 -35t-88.5 35t-35.5 88z" />
<glyph unicode="&#xfa;" horiz-adv-x="1173" d="M160 457v622h184v-602q0 -170 37 -236q53 -101 206 -101q148 0 205 101q38 71 38 236v602h184v-622q0 -231 -92 -352q-105 -133 -335 -133q-228 0 -333 133q-94 123 -94 352zM355 1331l273 376l193 -87l-351 -354z" />
<glyph unicode="&#xfc;" horiz-adv-x="1173" d="M160 457v622h184v-602q0 -170 37 -236q53 -101 206 -101q148 0 205 101q38 71 38 236v602h184v-622q0 -231 -92 -352q-105 -133 -335 -133q-228 0 -333 133q-94 123 -94 352zM239 1493q0 53 35 88.5t88 35.5t88.5 -35.5t35.5 -88.5t-35.5 -88t-88.5 -35q-35 0 -63 16 t-44 44t-16 63zM690 1493q0 35 16 63.5t44.5 44.5t63.5 16q53 0 89 -35.5t36 -88.5t-36 -88t-89 -35t-88.5 35t-35.5 88z" />
<glyph unicode="&#x150;" horiz-adv-x="1976" d="M87 862q0 368 266 633q264 265 636 265q371 0 635 -265q267 -263 267 -632.5t-267 -632.5q-264 -258 -635 -258q-374 0 -638 258q-264 259 -264 632zM280 865q0 -295 206 -504q208 -212 502.5 -212t499.5 208q210 210 210 508q0 294 -207 505q-204 210 -502 210 q-296 0 -503 -210q-206 -210 -206 -505zM688 1981l273 377l193 -87l-351 -354zM1124 1981l273 377l192 -87l-350 -354z" />
<glyph unicode="&#x151;" horiz-adv-x="1288" d="M78 536q0 239 163 405q163 167 403 167q239 0 402 -167q165 -168 165 -404.5t-165 -400.5q-163 -164 -402 -164q-242 0 -403 161q-163 163 -163 403zM261 539q0 -170 106 -285q106 -114 277 -114q170 0 276 114q108 118 108 285q0 165 -108 282q-106 118 -276 118 q-168 0 -274 -116q-109 -117 -109 -284zM321 1331l273 376l192 -87l-350 -354zM753 1331l272 376l192 -87l-350 -354z" />
<glyph unicode="&#x170;" horiz-adv-x="1570" d="M170 647v1082h193v-1029q0 -156 9 -230q10 -81 66 -158q55 -73 152 -118t196 -45q75 0 144 22t126 64t96 108t50 148q9 58 9 209v1029h192v-1082q0 -176 -22 -257q-31 -122 -124 -219.5t-217.5 -149t-253.5 -49.5q-272 4 -447 175q-101 95 -142 229q-27 96 -27 271z M459 1981l272 377l193 -87l-351 -354zM895 1981l272 377l193 -87l-351 -354z" />
<glyph unicode="&#x171;" horiz-adv-x="1173" d="M160 457v622h184v-602q0 -170 37 -236q53 -101 206 -101q148 0 205 101q38 71 38 236v602h184v-622q0 -231 -92 -352q-105 -133 -335 -133q-228 0 -333 133q-94 123 -94 352zM276 1331l272 376l193 -87l-351 -354zM707 1331l272 376l194 -87l-352 -354z" />
<glyph unicode="&#x2c6;" horiz-adv-x="1077" d="M179 1385l357 305l363 -305l-133 -103l-230 195l-227 -195z" />
<glyph unicode="&#x2da;" horiz-adv-x="801" d="M179 1548q0 92 65 157.5t159 65.5q92 0 157.5 -66t65.5 -157q0 -93 -64.5 -158.5t-158.5 -65.5q-95 0 -159.5 64.5t-64.5 159.5zM293 1548q0 -46 32 -78t78 -32q44 0 76.5 32t32.5 78t-31.5 77t-77.5 31q-47 0 -78.5 -30.5t-31.5 -77.5z" />
<glyph unicode="&#x2dc;" horiz-adv-x="1160" d="M179 1438q51 89 92 124q64 58 142 58q86 0 186 -53q36 -17 55 -26t46.5 -18t45.5 -9q49 0 92 53q24 34 36 57l108 -87q-34 -84 -99 -135t-145 -51q-46 0 -105 23q-51 22 -66 29q-73 34 -83 35q-42 16 -79 16q-41 0 -72 -32q-18 -17 -42 -74z" />
<glyph unicode="&#x2000;" horiz-adv-x="1179" />
<glyph unicode="&#x2001;" horiz-adv-x="2358" />
<glyph unicode="&#x2002;" horiz-adv-x="1179" />
<glyph unicode="&#x2003;" horiz-adv-x="2358" />
<glyph unicode="&#x2004;" horiz-adv-x="786" />
<glyph unicode="&#x2005;" horiz-adv-x="589" />
<glyph unicode="&#x2006;" horiz-adv-x="393" />
<glyph unicode="&#x2007;" horiz-adv-x="393" />
<glyph unicode="&#x2008;" horiz-adv-x="294" />
<glyph unicode="&#x2009;" horiz-adv-x="471" />
<glyph unicode="&#x200a;" horiz-adv-x="131" />
<glyph unicode="&#x2010;" horiz-adv-x="476" d="M4 468v169h471v-169h-471z" />
<glyph unicode="&#x2011;" horiz-adv-x="476" d="M4 468v169h471v-169h-471z" />
<glyph unicode="&#x2012;" horiz-adv-x="476" d="M4 468v169h471v-169h-471z" />
<glyph unicode="&#x2013;" horiz-adv-x="1146" d="M0 468v169h1147v-169h-1147z" />
<glyph unicode="&#x2014;" horiz-adv-x="2293" d="M0 468v169h2294v-169h-2294z" />
<glyph unicode="&#x2018;" horiz-adv-x="661" d="M140 1175l261 585l124 -49l-216 -599z" />
<glyph unicode="&#x2019;" horiz-adv-x="661" d="M138 1160l215 600l170 -62l-262 -586z" />
<glyph unicode="&#x201a;" horiz-adv-x="661" d="M140 -342l215 594l170 -59l-261 -585z" />
<glyph unicode="&#x201c;" horiz-adv-x="1047" d="M140 1175l261 585l124 -49l-216 -599zM525 1175l261 585l125 -49l-215 -599z" />
<glyph unicode="&#x201d;" horiz-adv-x="1047" d="M140 1160l215 600l170 -62l-261 -586zM525 1160l216 600l170 -62l-261 -586z" />
<glyph unicode="&#x201e;" horiz-adv-x="1064" d="M140 -342l215 594l170 -59l-261 -585zM541 -342l216 594l169 -59l-261 -585z" />
<glyph unicode="&#x2026;" horiz-adv-x="2293" d="M256 101q0 53 37 89.5t92 36.5t92 -36.5t37 -89.5q0 -54 -37 -91.5t-92 -37.5q-35 0 -64.5 16.5t-47 46.5t-17.5 66zM1018 101q0 53 37 89.5t92 36.5t92 -36.5t37 -89.5q0 -54 -37 -91.5t-92 -37.5q-54 0 -91.5 37t-37.5 92zM1780 101q0 53 36.5 89.5t92 36.5t92 -36.5 t36.5 -89.5q0 -54 -37 -91.5t-92 -37.5q-53 0 -90.5 37t-37.5 92z" />
<glyph unicode="&#x202f;" horiz-adv-x="471" />
<glyph unicode="&#x2039;" horiz-adv-x="756" d="M94 551l385 488l122 -96l-310 -392l310 -381l-122 -94z" />
<glyph unicode="&#x203a;" horiz-adv-x="756" d="M156 170l310 381l-310 392l122 96l385 -488l-385 -475z" />
<glyph unicode="&#x205f;" horiz-adv-x="589" />
<glyph unicode="&#x2122;" horiz-adv-x="2156" d="M83 1592v137h782v-137h-322v-828h-138v828h-322zM1051 764v965h231l278 -694l287 694h228v-965h-136v828l-335 -828h-90l-321 828l-5 -828h-137z" />
<glyph unicode="&#xe000;" horiz-adv-x="1077" d="M0 0v1079h1079v-1079h-1079z" />
</font>
</defs>
</svg>
